<?xml version="1.0" standalone="no"?>
<!DOCTYPE svg PUBLIC "-//W3C//DTD SVG 20010904//EN"
 "http://www.w3.org/TR/2001/REC-SVG-20010904/DTD/svg10.dtd">
<svg version="1.0" xmlns="http://www.w3.org/2000/svg"
 width="80.000000pt" height="80.000000pt" viewBox="0 0 80.000000 80.000000"
 preserveAspectRatio="xMidYMid meet">
<metadata>
Created by potrace 1.14, written by Peter Selinger 2001-2017
</metadata>
<g transform="translate(0.000000,80.000000) scale(0.100000,-0.100000)"
fill="#000000" stroke="none">
<path d="M200 780 c-8 -11 -20 -20 -28 -20 -17 0 -58 -41 -66 -68 -4 -12 -12
-22 -17 -22 -5 0 -9 -9 -9 -20 0 -11 -4 -20 -10 -20 -5 0 -10 -9 -10 -20 0
-11 -4 -20 -10 -20 -5 0 -10 -13 -10 -30 0 -16 -4 -30 -10 -30 -6 0 -10 -42
-10 -105 0 -63 4 -105 10 -105 6 0 10 -16 10 -35 0 -19 5 -35 10 -35 6 0 10
-9 10 -20 0 -11 5 -20 10 -20 6 0 10 -7 10 -15 0 -16 8 -28 48 -70 12 -13 22
-27 22 -30 0 -12 29 -35 44 -35 9 0 16 -4 16 -10 0 -5 14 -10 30 -10 17 0 30
-4 30 -10 0 -5 16 -10 35 -10 19 0 35 -4 35 -10 0 -6 30 -10 70 -10 40 0 70 4
70 10 0 6 11 10 25 10 14 0 25 5 25 10 0 6 9 10 20 10 11 0 20 5 20 10 0 6 9
10 20 10 15 0 20 7 20 25 0 14 5 25 10 25 6 0 10 -9 10 -21 0 -29 24 -49 59
-49 24 0 31 4 31 20 0 11 5 20 10 20 6 0 10 7 10 15 0 8 -4 15 -10 15 -5 0
-10 9 -10 20 0 16 -7 20 -34 20 -19 0 -36 -6 -39 -12 -2 -7 -8 -10 -12 -6 -11
11 21 38 44 38 14 0 21 6 21 20 0 11 5 20 10 20 6 0 10 9 10 20 0 11 5 20 10
20 6 0 10 9 10 20 0 11 5 20 10 20 6 0 10 50 10 130 0 80 -4 130 -10 130 -5 0
-10 9 -10 20 0 11 -4 20 -10 20 -5 0 -10 9 -10 20 0 11 -4 20 -10 20 -5 0 -10
9 -10 19 0 11 -7 26 -15 35 -8 8 -15 17 -15 21 0 13 -70 75 -85 75 -8 0 -15 5
-15 10 0 6 -66 10 -178 10 -166 0 -179 -1 -192 -20z m200 -140 c0 -5 -4 -10
-10 -10 -5 0 -10 -13 -10 -30 0 -16 -4 -30 -10 -30 -5 0 -10 -20 -10 -45 l0
-45 70 0 c60 0 70 -2 70 -18 0 -10 -9 -24 -20 -32 -11 -8 -20 -21 -20 -30 0
-9 -9 -22 -20 -30 -11 -8 -20 -22 -20 -32 0 -10 -4 -18 -10 -18 -5 0 -10 -7
-10 -15 0 -8 -4 -15 -10 -15 -5 0 -10 -7 -10 -16 0 -15 -23 -44 -34 -44 -3 0
-6 9 -6 20 0 11 5 20 10 20 6 0 10 11 10 25 0 14 5 25 10 25 6 0 10 13 10 29
0 16 6 31 12 33 9 3 8 9 -4 21 -11 12 -33 17 -67 17 -55 0 -67 16 -36 46 8 9
15 25 15 38 0 12 9 28 20 36 11 8 20 22 20 32 0 10 5 18 10 18 6 0 10 7 10 15
0 17 20 44 33 45 4 0 7 -4 7 -10z m-250 -40 c0 -5 -4 -10 -10 -10 -5 0 -10 5
-10 10 0 6 5 10 10 10 6 0 10 -4 10 -10z"/>
</g>
</svg>
